<svg width="25" height="25" viewBox="0 0 25 25" fill="none" xmlns="http://www.w3.org/2000/svg">
<path d="M12.5 0C5.59667 0 0 5.59667 0 12.5C0 19.4033 5.59667 25 12.5 25C19.4033 25 25 19.4033 25 12.5C25 5.59667 19.4033 0 12.5 0ZM14.5833 20.7292H10.4167V10.7292H14.5833V20.7292ZM12.5 8.4375C11.9475 8.4375 11.4176 8.21801 11.0269 7.82731C10.6362 7.4366 10.4167 6.9067 10.4167 6.35417C10.4167 5.80163 10.6362 5.27173 11.0269 4.88103C11.4176 4.49033 11.9475 4.27083 12.5 4.27083C13.0525 4.27083 13.5824 4.49033 13.9731 4.88103C14.3638 5.27173 14.5833 5.80163 14.5833 6.35417C14.5833 6.9067 14.3638 7.4366 13.9731 7.82731C13.5824 8.21801 13.0525 8.4375 12.5 8.4375Z" fill="#494949"/>
</svg>
