<svg width="24" height="30" viewBox="0 0 24 30" fill="none" xmlns="http://www.w3.org/2000/svg">
<path d="M19.529 9.64875C19.6179 9.73584 19.6885 9.83929 19.7366 9.95319C19.7848 10.0671 19.8096 10.1892 19.8096 10.3125C19.8096 10.4358 19.7848 10.5579 19.7366 10.6718C19.6885 10.7857 19.6179 10.8892 19.529 10.9763L16.1858 14.2575C16.0118 14.4281 15.7774 14.5262 15.5315 14.5315C15.2856 14.5367 15.0471 14.4486 14.8657 14.2856L13.4329 13.0013C13.2555 12.8314 13.1523 12.6004 13.1451 12.3572C13.138 12.114 13.2274 11.8776 13.3946 11.6979C13.5618 11.5183 13.7936 11.4094 14.041 11.3944C14.2884 11.3794 14.5321 11.4594 14.7205 11.6175L15.479 12.2962L18.1764 9.64875C18.2651 9.56144 18.3705 9.49218 18.4866 9.44491C18.6026 9.39765 18.727 9.37332 18.8527 9.37332C18.9783 9.37332 19.1027 9.39765 19.2188 9.44491C19.3348 9.49218 19.4402 9.56144 19.529 9.64875V9.64875ZM19.529 20.3513C19.7083 20.1755 19.8092 19.9369 19.8094 19.6882C19.8095 19.4394 19.709 19.2007 19.5299 19.0247C19.3508 18.8486 19.1078 18.7497 18.8543 18.7495C18.6008 18.7493 18.3577 18.848 18.1783 19.0237L15.479 21.6712L14.7205 20.9925C14.5321 20.8344 14.2884 20.7544 14.041 20.7694C13.7936 20.7844 13.5618 20.8933 13.3946 21.0729C13.2274 21.2526 13.138 21.489 13.1451 21.7322C13.1523 21.9754 13.2555 22.2064 13.4329 22.3763L14.8657 23.6606C15.047 23.8231 15.2851 23.9108 15.5305 23.9056C15.776 23.9003 16.01 23.8025 16.1839 23.6325L19.527 20.3513H19.529ZM5.48005 11.25C5.22671 11.25 4.98376 11.3488 4.80462 11.5246C4.62549 11.7004 4.52486 11.9389 4.52486 12.1875C4.52486 12.4361 4.62549 12.6746 4.80462 12.8504C4.98376 13.0262 5.22671 13.125 5.48005 13.125H10.256C10.5093 13.125 10.7523 13.0262 10.9314 12.8504C11.1105 12.6746 11.2112 12.4361 11.2112 12.1875C11.2112 11.9389 11.1105 11.7004 10.9314 11.5246C10.7523 11.3488 10.5093 11.25 10.256 11.25H5.48005ZM4.52486 21.5625C4.52486 21.3139 4.62549 21.0754 4.80462 20.8996C4.98376 20.7238 5.22671 20.625 5.48005 20.625H10.256C10.5093 20.625 10.7523 20.7238 10.9314 20.8996C11.1105 21.0754 11.2112 21.3139 11.2112 21.5625C11.2112 21.8111 11.1105 22.0496 10.9314 22.2254C10.7523 22.4012 10.5093 22.5 10.256 22.5H5.48005C5.22671 22.5 4.98376 22.4012 4.80462 22.2254C4.62549 22.0496 4.52486 21.8111 4.52486 21.5625ZM6.59762 1.875C6.79523 1.32642 7.16133 0.851491 7.64548 0.515678C8.12962 0.179865 8.70796 -0.00030465 9.3008 3.86694e-07H15.0319C15.6248 -0.00030465 16.2031 0.179865 16.6873 0.515678C17.1714 0.851491 17.5375 1.32642 17.7351 1.875H20.7631C21.5231 1.875 22.2519 2.17132 22.7893 2.69876C23.3267 3.22621 23.6286 3.94158 23.6286 4.6875V27.1875C23.6286 27.9334 23.3267 28.6488 22.7893 29.1762C22.2519 29.7037 21.5231 30 20.7631 30H3.56967C2.80967 30 2.0808 29.7037 1.54341 29.1762C1.00601 28.6488 0.704102 27.9334 0.704102 27.1875V4.6875C0.704102 3.94158 1.00601 3.22621 1.54341 2.69876C2.0808 2.17132 2.80967 1.875 3.56967 1.875H6.59762ZM9.3008 1.875C9.04747 1.875 8.80451 1.97377 8.62538 2.14959C8.44625 2.3254 8.34561 2.56386 8.34561 2.8125C8.34561 3.06114 8.44625 3.2996 8.62538 3.47541C8.80451 3.65123 9.04747 3.75 9.3008 3.75H15.0319C15.2853 3.75 15.5282 3.65123 15.7074 3.47541C15.8865 3.2996 15.9871 3.06114 15.9871 2.8125C15.9871 2.56386 15.8865 2.3254 15.7074 2.14959C15.5282 1.97377 15.2853 1.875 15.0319 1.875H9.3008ZM6.59762 3.75H3.56967C3.31634 3.75 3.07338 3.84877 2.89425 4.02459C2.71511 4.2004 2.61448 4.43886 2.61448 4.6875V27.1875C2.61448 27.4361 2.71511 27.6746 2.89425 27.8504C3.07338 28.0262 3.31634 28.125 3.56967 28.125H20.7631C21.0164 28.125 21.2594 28.0262 21.4385 27.8504C21.6176 27.6746 21.7183 27.4361 21.7183 27.1875V4.6875C21.7183 4.43886 21.6176 4.2004 21.4385 4.02459C21.2594 3.84877 21.0164 3.75 20.7631 3.75H17.7351C17.5375 4.29858 17.1714 4.77351 16.6873 5.10932C16.2031 5.44514 15.6248 5.62531 15.0319 5.625H9.3008C8.70796 5.62531 8.12962 5.44514 7.64548 5.10932C7.16133 4.77351 6.79523 4.29858 6.59762 3.75V3.75Z" fill="white"/>
</svg>
