<svg width="22" height="18" viewBox="0 0 22 18" fill="none" xmlns="http://www.w3.org/2000/svg">
<path fill-rule="evenodd" clip-rule="evenodd" d="M0 17.1C0 16.8613 0.0948213 16.6324 0.263604 16.4636C0.432387 16.2948 0.661305 16.2 0.9 16.2H13.5C13.7387 16.2 13.9676 16.2948 14.1364 16.4636C14.3052 16.6324 14.4 16.8613 14.4 17.1C14.4 17.3387 14.3052 17.5676 14.1364 17.7364C13.9676 17.9052 13.7387 18 13.5 18H0.9C0.661305 18 0.432387 17.9052 0.263604 17.7364C0.0948213 17.5676 0 17.3387 0 17.1ZM0 11.7C0 11.4613 0.0948213 11.2324 0.263604 11.0636C0.432387 10.8948 0.661305 10.8 0.9 10.8H20.7C20.9387 10.8 21.1676 10.8948 21.3364 11.0636C21.5052 11.2324 21.6 11.4613 21.6 11.7C21.6 11.9387 21.5052 12.1676 21.3364 12.3364C21.1676 12.5052 20.9387 12.6 20.7 12.6H0.9C0.661305 12.6 0.432387 12.5052 0.263604 12.3364C0.0948213 12.1676 0 11.9387 0 11.7ZM0 6.3C0 6.06131 0.0948213 5.83239 0.263604 5.6636C0.432387 5.49482 0.661305 5.4 0.9 5.4H20.7C20.9387 5.4 21.1676 5.49482 21.3364 5.6636C21.5052 5.83239 21.6 6.06131 21.6 6.3C21.6 6.53869 21.5052 6.76761 21.3364 6.9364C21.1676 7.10518 20.9387 7.2 20.7 7.2H0.9C0.661305 7.2 0.432387 7.10518 0.263604 6.9364C0.0948213 6.76761 0 6.53869 0 6.3ZM7.2 0.9C7.2 0.661305 7.29482 0.432387 7.4636 0.263604C7.63239 0.0948213 7.86131 0 8.1 0H20.7C20.9387 0 21.1676 0.0948213 21.3364 0.263604C21.5052 0.432387 21.6 0.661305 21.6 0.9C21.6 1.13869 21.5052 1.36761 21.3364 1.5364C21.1676 1.70518 20.9387 1.8 20.7 1.8H8.1C7.86131 1.8 7.63239 1.70518 7.4636 1.5364C7.29482 1.36761 7.2 1.13869 7.2 0.9Z" fill="#8B8B8B"/>
</svg>
