<svg width="22" height="22" viewBox="0 0 22 22" fill="none" xmlns="http://www.w3.org/2000/svg">
<path d="M11 0C8.82441 0 6.69767 0.645139 4.88873 1.85383C3.07979 3.06253 1.66989 4.78049 0.83733 6.79048C0.00476611 8.80047 -0.21307 11.0122 0.211367 13.146C0.635804 15.2798 1.68345 17.2398 3.22183 18.7782C4.76021 20.3165 6.72022 21.3642 8.85401 21.7886C10.9878 22.2131 13.1995 21.9952 15.2095 21.1627C17.2195 20.3301 18.9375 18.9202 20.1462 17.1113C21.3549 15.3023 22 13.1756 22 11C22 8.08261 20.8411 5.28472 18.7782 3.22182C16.7153 1.15892 13.9174 0 11 0V0ZM11 20.4286C9.13521 20.4286 7.31229 19.8756 5.76177 18.8396C4.21125 17.8035 3.00277 16.331 2.28914 14.6082C1.57551 12.8853 1.3888 10.9895 1.7526 9.16057C2.1164 7.33161 3.01439 5.6516 4.333 4.33299C5.6516 3.01438 7.33162 2.1164 9.16058 1.75259C10.9895 1.38879 12.8853 1.57551 14.6082 2.28913C16.331 3.00276 17.8035 4.21124 18.8396 5.76176C19.8756 7.31228 20.4286 9.1352 20.4286 11C20.4286 13.5006 19.4352 15.8988 17.667 17.667C15.8988 19.4352 13.5006 20.4286 11 20.4286Z" fill="#8B8B8B"/>
</svg>
