<svg width="28" height="26" viewBox="0 0 28 26" fill="none" xmlns="http://www.w3.org/2000/svg">
<path d="M27.0004 25.4444H0.999628C0.82789 25.4444 0.659063 25.4035 0.509413 25.3259C0.359763 25.2482 0.234333 25.1363 0.145207 25.001C0.0560816 24.8657 0.00626367 24.7115 0.000553102 24.5532C-0.00515747 24.395 0.0334316 24.2381 0.112603 24.0976L13.113 1.0517C13.1975 0.902121 13.3248 0.776767 13.4812 0.689284C13.6376 0.601801 13.8171 0.555542 14 0.555542C14.1829 0.555542 14.3624 0.601801 14.5188 0.689284C14.6752 0.776767 14.8025 0.902121 14.887 1.0517L27.8874 24.0976C27.9666 24.2381 28.0052 24.395 27.9994 24.5532C27.9937 24.7115 27.9439 24.8657 27.8548 25.001C27.7657 25.1363 27.6402 25.2482 27.4906 25.3259C27.3409 25.4035 27.1721 25.4444 27.0004 25.4444ZM2.64968 23.6008H25.3503L25.3513 23.598L14.002 3.47706H13.998L2.64768 23.598L2.64968 23.6008Z" fill="white"/>
<path d="M13.9999 18.8889C13.6922 18.8889 13.3915 18.9671 13.1357 19.1136C12.8799 19.2601 12.6805 19.4683 12.5627 19.712C12.445 19.9556 12.4142 20.2237 12.4742 20.4823C12.5342 20.741 12.6824 20.9785 12.8999 21.165C13.1175 21.3515 13.3947 21.4785 13.6964 21.5299C13.9982 21.5814 14.3109 21.5549 14.5952 21.454C14.8794 21.3531 15.1224 21.1822 15.2933 20.963C15.4642 20.7437 15.5554 20.4859 15.5554 20.2222C15.5554 19.8686 15.3916 19.5294 15.0998 19.2794C14.8081 19.0293 14.4125 18.8889 13.9999 18.8889ZM12.9629 9.11108H15.0369V17.1111H12.9629V9.11108Z" fill="white"/>
</svg>
