<svg width="29" height="24" viewBox="0 0 29 24" fill="none" xmlns="http://www.w3.org/2000/svg">
<path d="M5.51828 22.9601C5.37921 23.6704 6.16016 24.2256 6.84839 23.9088L14.6757 20.2995L22.5012 23.9088C23.1895 24.2256 23.9704 23.6704 23.8313 22.9617L22.3515 15.3943L28.6311 10.0251C29.2195 9.52271 28.9164 8.60438 28.1283 8.50518L19.3953 7.39167L15.5012 0.468994C15.427 0.328667 15.31 0.210107 15.1637 0.127088C15.0174 0.0440694 14.8479 0 14.6748 0C14.5017 0 14.3322 0.0440694 14.1859 0.127088C14.0396 0.210107 13.9226 0.328667 13.8484 0.468994L9.95435 7.39327L1.22129 8.50678C0.434988 8.60598 0.130098 9.5243 0.7167 10.0267L6.99816 15.3959L5.51828 22.9633V22.9601ZM14.2638 18.5332L7.69174 21.5634L8.92913 15.2327C8.95812 15.0869 8.94678 14.9371 8.89611 14.7962C8.84543 14.6553 8.75697 14.5278 8.63851 14.4247L3.45715 9.99307L10.6818 9.07154C10.8314 9.05127 10.9733 8.99876 11.0953 8.91851C11.2174 8.83827 11.3159 8.73267 11.3825 8.61077L14.6721 2.75842L17.9653 8.61077C18.0319 8.73267 18.1305 8.83827 18.2525 8.91851C18.3745 8.99876 18.5164 9.05127 18.666 9.07154L25.8907 9.99147L20.7093 14.4231C20.5906 14.5263 20.502 14.6541 20.4513 14.7953C20.4006 14.9365 20.3894 15.0867 20.4187 15.2327L21.6561 21.5634L15.084 18.5332C14.9569 18.4744 14.816 18.4437 14.673 18.4437C14.53 18.4437 14.3891 18.4744 14.262 18.5332H14.2638Z" fill="white"/>
</svg>
