<svg width="30" height="30" viewBox="0 0 30 30" fill="none" xmlns="http://www.w3.org/2000/svg">
<path d="M16.4657 0V3.03455C23.067 3.84577 27.7436 9.83976 26.9316 16.4347C26.2399 21.9029 21.9392 26.2444 16.4657 26.8903V29.8948C24.7361 29.0686 30.751 21.7376 29.924 13.4752C29.2473 6.33951 23.5783 0.706059 16.4657 0ZM13.4583 0.0450676C10.526 0.330496 7.72911 1.45719 5.44346 3.35003L7.59377 5.57336C9.27794 4.22133 11.308 3.35003 13.4583 3.04957V0.0450676ZM3.32322 5.4682C1.44305 7.74764 0.28601 10.5354 0 13.4752H3.00743C3.29314 11.342 4.13522 9.31397 5.47353 7.61642L3.32322 5.4682ZM20.225 9.71958L12.8869 17.0506L9.69898 13.8658L8.10504 15.4582L12.8869 20.2354L21.8189 11.312L20.225 9.71958ZM0.0150372 16.4797C0.315781 19.4241 1.47364 22.2033 3.33825 24.4867L5.47353 22.3385C4.14564 20.6404 3.29909 18.6168 3.02247 16.4797H0.0150372ZM7.59377 24.5468L5.44346 26.6049C7.72126 28.5018 10.5099 29.6831 13.4583 30V26.9955C11.3191 26.7191 9.29358 25.8734 7.59377 24.5468Z" fill="white"/>
</svg>
