<svg width="22" height="22" viewBox="0 0 22 22" fill="none" xmlns="http://www.w3.org/2000/svg">
<path d="M11 0C8.82441 0 6.69767 0.645139 4.88873 1.85383C3.07979 3.06253 1.66989 4.78049 0.83733 6.79048C0.00476611 8.80047 -0.21307 11.0122 0.211367 13.146C0.635804 15.2798 1.68345 17.2398 3.22183 18.7782C4.76021 20.3165 6.72022 21.3642 8.85401 21.7886C10.9878 22.2131 13.1995 21.9952 15.2095 21.1627C17.2195 20.3301 18.9375 18.9202 20.1462 17.1113C21.3549 15.3023 22 13.1756 22 11C22 8.08261 20.8411 5.28472 18.7782 3.22182C16.7153 1.15892 13.9174 0 11 0V0ZM11 20.4286C9.13521 20.4286 7.31229 19.8756 5.76177 18.8396C4.21125 17.8035 3.00277 16.331 2.28914 14.6082C1.57551 12.8853 1.3888 10.9895 1.7526 9.16057C2.1164 7.33161 3.01439 5.6516 4.333 4.33299C5.6516 3.01438 7.33162 2.1164 9.16058 1.75259C10.9895 1.38879 12.8853 1.57551 14.6082 2.28913C16.331 3.00276 17.8035 4.21124 18.8396 5.76176C19.8756 7.31228 20.4286 9.1352 20.4286 11C20.4286 13.5006 19.4352 15.8988 17.667 17.667C15.8988 19.4352 13.5006 20.4286 11 20.4286Z" fill="#8B8B8B"/>
<path d="M10.9999 6.28571C10.0675 6.28571 9.15607 6.56219 8.38081 7.08021C7.60555 7.59822 7.00131 8.33449 6.6445 9.19591C6.28769 10.0573 6.19433 11.0052 6.37623 11.9197C6.55813 12.8342 7.00712 13.6742 7.66643 14.3335C8.32573 14.9928 9.16574 15.4418 10.0802 15.6237C10.9947 15.8056 11.9426 15.7122 12.804 15.3554C13.6654 14.9986 14.4017 14.3944 14.9197 13.6191C15.4377 12.8438 15.7142 11.9324 15.7142 11C15.7142 9.74968 15.2175 8.55059 14.3334 7.66649C13.4493 6.78239 12.2502 6.28571 10.9999 6.28571Z" fill="#8B8B8B"/>
</svg>
