<svg width="66" height="72" viewBox="0 0 66 72" fill="none" xmlns="http://www.w3.org/2000/svg">
<path d="M55 49.9592C52.3875 49.9592 49.9767 50.8776 48.0883 52.4112L29.095 38.6449C29.413 36.896 29.413 35.104 29.095 33.3551L48.0883 19.5888C49.9767 21.1224 52.3875 22.0408 55 22.0408C61.0683 22.0408 66 17.1 66 11.0204C66 4.94082 61.0683 0 55 0C48.9317 0 44 4.94082 44 11.0204C44 12.0857 44.1467 13.1051 44.4308 14.0786L26.3908 27.1653C23.7142 23.6112 19.4608 21.3061 14.6667 21.3061C6.56333 21.3061 0 27.8816 0 36C0 44.1184 6.56333 50.6939 14.6667 50.6939C19.4608 50.6939 23.7142 48.3888 26.3908 44.8347L44.4308 57.9214C44.1467 58.8949 44 59.9235 44 60.9796C44 67.0592 48.9317 72 55 72C61.0683 72 66 67.0592 66 60.9796C66 54.9 61.0683 49.9592 55 49.9592ZM55 6.2449C57.6308 6.2449 59.7667 8.38469 59.7667 11.0204C59.7667 13.6561 57.6308 15.7959 55 15.7959C52.3692 15.7959 50.2333 13.6561 50.2333 11.0204C50.2333 8.38469 52.3692 6.2449 55 6.2449ZM14.6667 44.0816C10.2208 44.0816 6.6 40.4541 6.6 36C6.6 31.5459 10.2208 27.9184 14.6667 27.9184C19.1125 27.9184 22.7333 31.5459 22.7333 36C22.7333 40.4541 19.1125 44.0816 14.6667 44.0816ZM55 65.7551C52.3692 65.7551 50.2333 63.6153 50.2333 60.9796C50.2333 58.3439 52.3692 56.2041 55 56.2041C57.6308 56.2041 59.7667 58.3439 59.7667 60.9796C59.7667 63.6153 57.6308 65.7551 55 65.7551Z" fill="#333333"/>
</svg>
